<?xml version="1.0" encoding="UTF-8"?>
<!DOCTYPE svg PUBLIC "-//W3C//DTD SVG 1.1//EN"
  "http://www.w3.org/Graphics/SVG/1.1/DTD/svg11.dtd">
<!-- Created with Inkpad (http://www.taptrix.com/) --><svg xmlns:inkpad="http://taptrix.com/inkpad/svg_extensions" height="16pt" xmlns:xlink="http://www.w3.org/1999/xlink" xmlns="http://www.w3.org/2000/svg" width="16pt" version="1.1" viewBox="0,0,16,16">
<defs/>
<g id="Untitled" inkpad:layerName="Untitled">
<path d="M6+1L2.5+1C1.67157+1+1+1.67157+1+2.5L1+11.5C1+12.3284+1.67157+13+2.5+13L6+13L6+6L6+5L6+1ZM6+0L2.5+0C1.11929+0+0+1.11929+0+2.5L0+11.5C0+12.8807+1.11929+14+2.5+14L6+14L7+14L11.5+14C12.8807+14+14+12.8807+14+11.5L14+6L14+5L14+2.5C14+1.11929+12.8807+0+11.5+0L7+0L6+0ZM13+5L13+2.5C13+1.67157+12.3284+1+11.5+1L7+1L7+5L13+5ZM7+6L7+13L11.5+13C12.3284+13+13+12.3284+13+11.5L13+6L7+6Z" />
</g>
</svg>
